<svg width="210" height="49" viewBox="0 0 210 49" fill="none" xmlns="http://www.w3.org/2000/svg">
<path d="M39.0116 45.3358C39.1009 45.1938 39.1879 45.0473 39.2724 44.9032L39.2725 44.9028C39.4051 44.6737 39.5354 44.4396 39.659 44.203C39.9153 43.7134 40.1464 43.207 40.3546 42.6894L40.3548 42.6886C40.3568 42.6835 40.3583 42.6793 40.3598 42.6752C40.3628 42.6668 40.3653 42.6601 40.3691 42.6525L40.3982 42.5922L40.3347 42.5788C39.9696 42.5014 39.6136 42.4004 39.2691 42.2765L39.2255 42.2605L39.2073 42.3049C38.9573 42.9109 38.6708 43.501 38.348 44.0719C38.1457 44.4291 37.9297 44.7792 37.7002 45.1201C37.1978 45.8627 36.6295 46.5654 35.9975 47.2188C35.8978 47.3218 35.7958 47.4231 35.6937 47.522H29.4219L29.4359 47.4759L29.436 47.4755C29.4406 47.4596 29.4461 47.4457 29.4528 47.429C29.455 47.4236 29.4572 47.4177 29.4597 47.4114L29.4599 47.411C29.6577 46.8846 30.0624 46.4683 30.5696 46.2635C30.7879 46.1764 31.0236 46.1257 31.2702 46.1257C31.5348 46.1257 31.7838 46.181 32.0153 46.2798C32.3668 46.4314 32.6649 46.6844 32.8784 47.0064L32.9082 47.0512L32.9496 47.0177C33.2457 46.7782 33.5234 46.5198 33.7828 46.2396H33.7829C34.3314 45.6441 34.7951 44.9631 35.1464 44.2176C35.3094 43.8708 35.4472 43.5128 35.5619 43.14L35.5744 43.0994L35.5383 43.0789C35.2005 42.8892 34.8785 42.676 34.5701 42.4415H34.5699C34.3594 42.2823 34.1576 42.111 33.9623 41.9326C33.7966 41.7802 33.6356 41.6231 33.4815 41.4592L33.4808 41.4584C33.4323 41.4057 33.2166 41.172 32.9883 40.8722C32.7574 40.5692 32.5181 40.2045 32.4216 39.8936C32.42 39.8877 32.4177 39.8827 32.4154 39.8784C32.8189 39.1062 33.5547 38.2435 34.2811 37.5967L34.3092 37.5717L34.2941 37.5366C34.1559 37.2132 34.0357 36.878 33.9336 36.5355L33.9126 36.4648L33.8561 36.5099C33.2885 36.9627 32.6873 37.5666 32.1728 38.1949C31.6603 38.8208 31.2313 39.474 31.0078 40.0292L30.9871 40.0506L31.0061 40.0849C31.0172 40.1051 31.0307 40.122 31.0415 40.1354C31.0718 40.1809 31.1191 40.2636 31.1825 40.3743C31.1918 40.3906 31.2015 40.4075 31.2115 40.425C31.2897 40.5615 31.3874 40.7304 31.5003 40.9125C31.7256 41.2755 32.0132 41.6931 32.3315 42.0118C32.3976 42.0897 32.4659 42.1671 32.5342 42.2425H32.5343C32.5593 42.2702 32.5849 42.2961 32.6097 42.3213C32.6216 42.333 32.6332 42.3451 32.6446 42.3569C33.0838 42.8226 33.5649 43.2472 34.0834 43.6183C33.7879 44.2637 33.3944 44.8508 32.925 45.3622C32.4455 45.0548 31.8787 44.8789 31.2725 44.8789C31.124 44.8789 30.9782 44.891 30.8351 44.9099L30.8346 44.9103C30.3574 44.9794 29.9148 45.157 29.5302 45.4204H29.53C29.0157 45.7747 28.6079 46.2802 28.3646 46.8766C28.2834 47.0734 28.2232 47.282 28.1815 47.4968C28.179 47.509 28.1771 47.5211 28.1755 47.532L28.1754 47.5324C28.1736 47.5442 28.1721 47.5538 28.1702 47.5626L28.1699 47.5643C28.1374 47.7494 28.1212 47.9408 28.1212 48.1347C28.1212 48.1544 28.1217 48.1736 28.1223 48.1921L28.1223 48.1933C28.1229 48.2126 28.1235 48.2314 28.1235 48.2503H28.1234L28.1235 48.2524C28.1281 48.3914 28.1421 48.5279 28.1628 48.662H28.1628L28.1632 48.6636C28.1678 48.6879 28.1725 48.7097 28.1771 48.7306V48.7311L28.1857 48.7713H28.2254H36.1442H36.1631L36.1771 48.7583C36.5702 48.3943 36.9498 48.0116 37.3066 47.6095L37.3127 47.6032L37.3195 47.5961L37.3209 47.5944C37.9432 46.8946 38.5106 46.1378 39.0116 45.3358ZM39.0116 45.3358C39.0115 45.3358 39.0115 45.3358 39.0115 45.3358L38.97 45.3078L39.0116 45.3358Z" fill="#FCBC3D" stroke="#FCBC3D" stroke-width="0.2"/>
<path d="M54.1687 31.0224L52.0342 28.5939C52.0132 28.5703 51.9956 28.5467 51.9746 28.5255L51.9473 28.4948C51.9473 28.4948 51.9431 28.4924 51.9405 28.4924C51.2954 27.8063 50.3962 27.4527 49.4726 27.5234C47.9652 27.6365 46.7292 28.8956 46.599 30.4518C46.5213 31.3784 46.8317 32.2933 47.4495 32.9629L50.492 36.3912C50.5856 36.4973 50.6839 36.6058 50.7679 36.7237C50.8162 36.7873 50.8591 36.8557 50.9027 36.9359C51.1081 37.2731 51.2152 37.662 51.2152 38.0629C51.2152 38.169 51.2085 38.2775 51.1921 38.3836C51.1921 38.3907 51.1904 38.3954 51.1904 38.4024L51.1879 38.4119C51.1858 38.4236 51.1833 38.4354 51.1808 38.4472C51.1787 38.4614 51.1766 38.4731 51.1745 38.4873L51.1719 38.5038C51.1673 38.5321 51.1606 38.558 51.1535 38.5863L51.1518 38.5981C51.1493 38.6099 51.1446 38.6217 51.1421 38.6335C51.14 38.6453 51.1354 38.6571 51.1333 38.6689L51.1308 38.676C51.1287 38.6806 51.1287 38.6854 51.1262 38.6901C51.1194 38.7113 51.1123 38.7302 51.1056 38.7514C50.9258 39.2913 50.531 39.7323 50.0249 39.9633C49.9195 40.0176 49.8082 40.0576 49.694 40.0836C49.5209 40.1402 49.3382 40.1661 49.1513 40.159C48.9959 40.1661 48.841 40.1472 48.686 40.1048C48.6587 40.0977 48.6335 40.0906 48.6108 40.0836C48.5856 40.0765 48.5583 40.0671 48.5331 40.06C48.5238 40.0576 48.5146 40.0552 48.5079 40.0506C48.4898 40.0458 48.4739 40.0388 48.4554 40.0317L48.444 40.027C48.4373 40.0246 48.4306 40.0223 48.426 40.0199C48.4054 40.0129 48.3823 40.0034 48.3622 39.9964C48.3462 39.9892 48.3302 39.9846 48.3143 39.9775L48.2958 39.9704C48.2387 39.9468 48.182 39.9209 48.1269 39.8926C47.835 39.7158 47.5864 39.4611 47.4109 39.1616L47.3815 39.1098L47.3903 39.1711C47.5843 40.3665 47.6822 41.5902 47.6822 42.8067C47.6822 44.2875 47.5385 45.7684 47.2534 47.2066C47.2353 47.2937 47.2172 47.3905 47.1941 47.4989C47.192 47.5107 47.1895 47.5224 47.1853 47.5345L47.1807 47.5555H47.1211C45.8577 47.5555 42.9496 47.5555 42.8085 47.5555H42.8013C42.7535 47.5555 42.6623 47.5555 42.5485 47.5555C42.845 46.6739 43.6111 46.0419 44.5074 45.9406C44.5943 45.9309 44.6809 45.9263 44.7653 45.9263C45.1508 45.9263 45.536 46.0252 45.8736 46.214L45.9035 46.2304L45.8896 46.1998C45.712 45.773 45.5179 45.3438 45.315 44.9313C44.5028 43.2761 43.4948 41.7199 42.3179 40.3076L42.3158 40.3029H42.3112C42.1629 40.2981 42.008 40.2887 41.8528 40.2746V40.2652H41.8413C41.3806 40.218 40.9199 40.1236 40.4751 39.9798C39.7795 39.7558 39.1227 39.4187 38.5251 38.9754C37.9367 38.5392 37.419 38.0134 36.9879 37.4097C36.0916 36.1601 35.6172 34.6723 35.6172 33.1068C35.6172 32.8049 35.6377 32.4914 35.6787 32.173L35.6856 32.1329C35.697 32.0622 35.7084 31.9938 35.7198 31.9231L35.7221 31.9089H35.6993C35.6719 31.9089 35.6126 31.9089 35.5944 31.9089C32.1163 32.1447 28.8889 33.7268 26.501 36.3629C24.1062 39.0084 22.7879 42.4695 22.7879 46.1077C22.7879 46.261 22.7857 46.4285 22.7811 46.6077C22.7742 46.926 22.7674 47.256 22.7788 47.5555C20.156 47.5555 18.6666 47.5555 18.5663 47.5555H18.5595C18.5116 47.5555 18.418 47.5555 18.3063 47.5555C18.6028 46.6739 19.3691 46.0419 20.2654 45.9406C20.3521 45.9309 20.4387 45.9263 20.5231 45.9263C20.6235 45.9263 20.7444 45.9381 20.8813 45.9615C21.2439 46.0231 21.6658 46.1596 21.9076 46.294L21.9258 46.3037V46.2823C21.8369 44.4764 21.2758 42.5617 20.302 40.7461C19.3646 38.9943 18.0622 37.3626 16.5387 36.0281C15.8545 35.3632 15.3162 34.5804 14.9376 33.6986C14.5453 32.7861 14.3469 31.8123 14.3469 30.8079C14.3469 29.537 14.5887 28.3981 15.063 27.4244C15.542 26.4412 16.2605 25.6277 17.1956 25.0052L17.2001 25.0146L47.6939 7.85198C48.1249 8.58053 48.3575 9.41759 48.3575 10.2947C48.3575 11.5444 47.8854 12.7209 47.0299 13.6051C46.8888 13.7513 46.7405 13.8856 46.5851 14.0083C46.4919 14.0814 46.3982 14.1521 46.3004 14.2181L23.9374 26.8325L23.9283 26.8373L23.9329 26.8467C24.0766 27.1179 24.3138 27.3159 24.5988 27.4031C24.8862 27.4903 25.1873 27.4573 25.4496 27.3088C25.4496 27.3088 46.2386 15.5975 46.3184 15.5574C46.7745 16.3001 47.0186 17.1607 47.0186 18.0614C47.0186 19.0729 46.615 20.0632 45.9879 20.8295C45.5658 21.3435 45.0551 21.6877 44.494 22.0084C43.4608 22.5955 42.4276 23.1802 41.3943 23.7674C40.2927 24.3922 39.1888 25.017 38.0872 25.6395C37.7725 25.8187 37.46 26.0097 37.1384 26.1771L37.1293 26.1818L37.1361 26.1912C37.4349 26.7382 38.1146 26.9387 38.646 26.6368C38.646 26.6368 45.2785 22.9539 45.5385 22.7794C46.7246 21.9778 47.6502 20.9215 47.9972 19.4572C48.0518 19.2285 48.0929 18.9927 48.1202 18.7546C48.1454 18.5282 48.1589 18.2948 48.1589 18.0614C48.1589 17.1466 47.956 16.2812 47.5956 15.5102C47.5091 15.3263 47.4134 15.1471 47.3105 14.9749C47.3012 14.9608 47.2945 14.9467 47.2853 14.9325C48.6288 13.8597 49.4932 12.1809 49.4932 10.29C49.4932 9.45294 49.3223 8.656 49.0165 7.93687C48.9207 7.71285 48.8111 7.49357 48.6906 7.28609C48.5192 6.99138 48.3256 6.71552 48.111 6.4585L27.1807 18.1227C25.7073 13.4778 22.4299 9.6793 18.1991 7.61854C18.1923 7.61619 17.9915 7.52423 17.8045 7.45114C17.8068 7.45114 17.8091 7.45349 17.8091 7.45349C16.7759 7.01496 15.6423 6.7721 14.4564 6.7721C13.5828 6.7721 12.7367 6.90414 11.9407 7.14935C10.3966 7.62327 8.71575 8.70789 7.81254 9.92217C7.81027 9.92451 7.80801 9.92925 7.8057 9.93159C7.80343 9.93632 7.80116 9.93867 7.79658 9.94336C7.52291 10.3135 7.4841 10.8252 7.70994 11.2308C7.52976 11.3345 7.31535 11.45 7.06902 11.5821C5.639 12.3508 3.47685 13.5155 3.08683 15.0481C2.99332 15.4159 2.99104 15.7719 3.08228 16.1091C3.09824 16.1657 3.08456 16.2247 3.05262 16.2671L0.555208 18.533C0.409237 18.7121 0.379588 18.9644 0.475379 19.1766C0.477664 19.1838 0.484501 19.2049 0.493624 19.2356C0.546082 19.4101 0.68065 19.8769 1.02276 20.3485C1.45382 20.945 2.03998 21.3176 2.76525 21.459C3.64334 21.6288 3.98545 22.0461 4.11089 22.2796C4.24091 22.5248 4.49404 22.6639 4.75406 22.6308C4.80198 22.6262 4.83159 22.6097 4.84986 22.5837C4.88405 22.5271 4.85213 22.4375 4.81563 22.3314C4.7746 22.2135 4.72899 22.0792 4.76091 21.9636L5.07335 20.879C5.08708 20.8319 5.119 20.7918 5.1623 20.7706C5.20795 20.7469 5.25814 20.7422 5.30598 20.7588C5.67096 20.8861 6.0427 21.044 6.05866 21.0794C6.06547 21.0959 6.06547 21.2091 5.93094 21.4378C5.05512 22.9233 4.61038 23.2038 4.53054 23.2463C4.3207 23.3547 4.17932 23.5787 4.16335 23.8287C4.14739 24.0786 4.2546 24.3238 4.44843 24.4629C5.30145 25.0878 6.9641 25.3447 7.81939 25.3613C8.23221 27.5894 9.06696 29.6761 10.3031 31.5576L10.3123 31.5718C11.4777 33.5406 11.4686 35.0967 11.4618 36.469C11.4618 36.5727 11.4618 36.6765 11.4618 36.7779C11.4618 38.0605 11.309 39.3362 11.0102 40.5693C10.7137 41.7883 10.2712 42.9721 9.69414 44.0823C9.43185 44.5518 9.11488 44.9878 8.75221 45.3794C8.25501 45.0561 7.68255 44.8839 7.09409 44.8839C6.95272 44.8839 6.80904 44.8961 6.66304 44.9149C6.19781 44.9807 5.76445 45.1507 5.37444 45.4192C4.85898 45.773 4.46212 46.2706 4.22494 46.8577C4.14511 47.0533 4.08352 47.2606 4.04475 47.4709C4.04247 47.4847 4.04019 47.4989 4.03791 47.5132C4.03563 47.5224 4.03563 47.5295 4.03335 47.5391C4.00142 47.7276 3.98545 47.9186 3.98545 48.1024C3.98545 48.1355 3.98773 48.1711 3.98773 48.2038V48.218C3.99229 48.355 4.00598 48.4915 4.0265 48.6213C4.02879 48.6356 4.03107 48.6473 4.03335 48.6615C4.03563 48.6707 4.03791 48.6804 4.03791 48.6896L4.04019 48.6992H11.9726L11.975 48.6967C12.374 48.329 12.7527 47.942 13.1039 47.5509L13.1176 47.5366C13.7403 46.8364 14.3081 46.0796 14.803 45.2826C14.8897 45.1436 14.9787 44.9974 15.063 44.8513C15.1953 44.6222 15.3254 44.3889 15.4485 44.1531C15.7017 43.6652 15.9366 43.158 16.1418 42.6442C16.1601 42.5993 16.1761 42.5545 16.192 42.5122C16.2034 42.4838 16.2125 42.4557 16.2239 42.4297C16.3472 42.1135 16.4475 41.8307 16.5319 41.5666L16.541 41.5384C16.5638 41.4676 16.5866 41.3945 16.6094 41.3238C16.6573 41.1705 16.7029 41.0172 16.7439 40.864L16.7462 40.8569L16.7417 40.8522C16.6619 40.765 16.5752 40.6731 16.4862 40.5787C16.2696 40.3523 16.0506 40.1354 15.8317 39.9303L15.818 39.9161L15.8134 39.935C15.7792 40.0836 15.7496 40.2015 15.7199 40.3123C15.656 40.5528 15.5968 40.7649 15.5397 40.9583L15.5261 41.0007C15.5101 41.055 15.4941 41.1092 15.4759 41.1611C15.4736 41.1705 15.469 41.1799 15.4667 41.1894C15.4644 41.1964 15.4622 41.2059 15.4576 41.213C15.3459 41.5595 15.2204 41.9037 15.0859 42.2362C14.835 42.8586 14.5385 43.4717 14.2055 44.0589C14.0025 44.4195 13.7836 44.7734 13.5555 45.1105C13.0491 45.8581 12.4744 46.5675 11.8472 47.2158C11.7491 47.3176 11.6488 47.4164 11.5302 47.532H5.18968C5.20111 47.4943 5.21022 47.4638 5.21934 47.4353C5.22618 47.4118 5.2353 47.3905 5.24441 47.367C5.44513 46.8318 5.85795 46.405 6.37568 46.1973C6.60605 46.1056 6.8478 46.0583 7.08951 46.0583C7.35184 46.0583 7.60729 46.1102 7.849 46.2161C8.20486 46.3694 8.51046 46.6266 8.72713 46.9566L8.73398 46.9662L8.74309 46.9591C9.03504 46.7233 9.31555 46.4616 9.571 46.1831C10.1252 45.5846 10.5814 44.9053 10.9281 44.1699C10.9896 44.0375 11.0512 43.8964 11.115 43.7381C12.0912 41.5454 12.5862 39.2065 12.5862 36.785C12.5862 35.9291 12.5223 35.0661 12.3946 34.2126C12.5063 34.3116 12.6204 34.3965 12.7253 34.4743C13.3844 35.1038 14.1006 35.6791 14.8532 36.186C15.5899 36.7873 16.1784 37.3202 16.7029 37.8625C17.6791 38.8716 18.507 39.9681 19.1615 41.121C19.8412 42.3162 20.3407 43.5827 20.644 44.8864C20.5939 44.8818 20.5506 44.8772 20.5186 44.8772C20.2723 44.8772 20.026 44.9053 19.7865 44.9597C19.0521 45.1293 18.3861 45.5561 17.9094 46.1621C17.4259 46.7773 17.1591 47.5555 17.1591 48.3499C17.1591 48.4538 17.1636 48.5577 17.1728 48.6687C17.1728 48.685 17.1728 48.7013 17.1773 48.7156L17.1796 48.7252H23.8896V48.713C23.8896 48.7013 23.8804 47.5722 23.8804 47.5484C23.885 47.3008 23.8941 47.0345 23.901 46.8012C23.9101 46.5135 23.9169 46.2635 23.9169 46.1148C23.9169 42.5901 25.2147 39.3078 27.5707 36.8722C29.466 34.9128 31.8585 33.6467 34.4859 33.2152C34.511 35.2641 35.2591 37.2211 36.5956 38.7325C37.9253 40.2345 39.7316 41.1823 41.684 41.3969C42.131 41.9536 42.5531 42.5357 42.9408 43.1275C43.3259 43.7171 43.6888 44.3349 44.0173 44.9664C43.2898 45.1365 42.6283 45.5632 42.1537 46.1667C41.6702 46.7824 41.4034 47.5601 41.4034 48.355C41.4034 48.4584 41.408 48.5623 41.4171 48.6733C41.4171 48.6896 41.4171 48.7063 41.4216 48.7202L41.4239 48.7298H48.0997L48.1022 48.7202C48.1429 48.5648 48.1795 48.409 48.216 48.2582C48.631 46.485 48.843 44.6532 48.843 42.8117C48.843 42.3024 48.8271 41.7859 48.7952 41.279C48.93 41.2978 49.0669 41.3073 49.2034 41.3096C49.9653 41.3167 50.702 41.029 51.2816 40.5056C51.8607 39.9798 52.2303 39.263 52.3215 38.4826C52.4214 37.6173 52.1913 36.7661 51.6738 36.087L51.6646 36.0752C51.589 35.9762 50.1799 34.3635 50.1203 34.2951L48.3689 32.2909C47.9308 31.8147 47.7099 31.2983 47.7099 30.7583C47.7099 29.6124 48.6129 28.6787 49.7217 28.6787C50.2253 28.6787 50.7066 28.8721 51.0808 29.2257C51.0968 29.2376 51.1106 29.2493 51.122 29.2635L51.1421 29.287C51.1904 29.3366 51.2358 29.3884 51.279 29.445L52.7297 31.0978C52.3374 31.6803 52.2119 32.3923 52.3803 33.0996C52.581 33.9414 53.2064 34.604 54.0162 34.8279C54.6726 35.0095 55.3413 34.9105 55.8999 34.5497C55.9478 34.5261 56.1964 34.3399 56.2876 34.2503C56.422 34.1206 56.548 33.9721 56.6639 33.8094L56.6689 33.8023L54.1687 31.0224ZM8.10906 18.0378L8.10679 18.0472C7.84219 19.1083 7.52749 20.6904 7.52749 22.2206C7.52749 22.902 7.57079 23.6 7.6529 24.2955C7.46134 24.2648 7.21954 24.2365 6.96641 24.2082C6.43272 24.1493 5.88075 24.088 5.73023 23.9819C5.68692 23.9512 5.6595 23.9041 5.65496 23.8522C5.65038 23.8004 5.66407 23.7508 5.6983 23.7131C6.04497 23.3264 6.43045 22.7724 6.84553 22.0697C6.89568 21.9848 7.32673 21.2209 7.03936 20.5843C6.72693 19.8958 6.28219 19.8251 5.81687 19.7166C5.78495 19.7095 4.8544 19.5091 4.8544 19.5091L4.29336 20.7635C4.27056 20.8177 4.24775 20.8554 4.19072 20.8696C4.1337 20.8837 4.0744 20.8696 4.03107 20.8295C3.78475 20.6102 3.53386 20.4216 2.95455 20.3084C2.2977 20.1811 2.1677 19.9382 1.96927 19.5728C1.91453 19.4714 1.85067 19.3535 1.77085 19.2309C1.68418 19.0965 1.6933 18.9173 1.79365 18.7923L3.6251 17.3399L3.62738 17.3375C3.68895 17.2621 3.80072 17.2479 3.87598 17.3045C4.063 17.4484 4.26371 17.5356 4.47123 17.5639C4.94109 17.6275 5.26041 17.3635 5.31741 17.3093C5.31741 17.3093 5.53866 17.1655 5.64811 17.0051L5.65038 17.0028C5.75534 16.8495 5.79411 16.7127 5.76445 16.5948L5.75988 16.5806L5.74845 16.5878C5.58196 16.6726 5.40405 16.7174 5.23072 16.7174C4.93655 16.7174 4.65372 16.5972 4.41424 16.3661C4.21125 16.1728 4.09037 15.8733 4.07668 15.522C4.06984 15.3782 4.10177 15.2179 4.17019 15.0575C4.47808 14.1592 6.45779 13.1477 7.76697 12.478C7.938 12.3908 8.10217 12.306 8.24359 12.2329C8.66783 13.3057 8.66783 14.3124 8.66783 14.9161V15.0033C8.66783 15.5338 8.60168 16.1398 8.47169 16.7528C8.34166 17.1678 8.21851 17.6016 8.10906 18.0378ZM13.7881 33.8895C13.5258 33.6537 13.2772 33.4133 13.0491 33.1775C10.2188 30.2514 8.65872 26.3586 8.65872 22.2206C8.65872 20.8436 8.83885 19.4667 9.19237 18.1274C9.21979 18.0331 9.24487 17.9412 9.27221 17.8469C9.52996 16.9508 9.79683 16.0266 9.79683 15.001C9.79683 13.4424 9.41362 11.9499 8.68833 10.6837C9.08749 10.1956 9.5505 9.75239 10.0591 9.37513C10.4993 9.05684 10.9714 8.78566 11.4709 8.56642C12.4174 8.15143 13.4232 7.94156 14.4609 7.94156C15.4987 7.94156 16.4953 8.175 17.451 8.56642C18.3245 8.92479 19.2961 9.54726 19.8412 9.92925C20.6873 10.5211 21.4856 11.2001 22.2087 11.9499C22.3432 12.089 22.4755 12.2305 22.6055 12.3743C23.1734 13.0062 23.6979 13.6853 24.1633 14.3973C24.7403 15.2815 25.2375 16.227 25.6366 17.2055C25.835 17.6912 26.0107 18.184 26.1612 18.6839L16.6824 23.9654V23.9631L16.6687 23.9725L16.6595 23.9772C15.7176 24.5973 14.8624 25.5593 14.2511 26.6864C13.5692 27.9454 13.2111 29.3672 13.2111 30.7984C13.2156 31.8665 13.4072 32.9063 13.7881 33.8895ZM54.1758 33.6325C53.8726 33.5052 53.6327 33.2482 53.5185 32.9299C53.4072 32.6163 53.4118 32.2957 53.5281 31.9962L54.408 32.9983L55.0217 33.6773C54.7482 33.7669 54.4564 33.7504 54.1758 33.6325Z" fill="#FCBC3D"/>
<path d="M54.1687 31.0224L52.0342 28.5939C52.0132 28.5703 51.9956 28.5467 51.9746 28.5255L51.9473 28.4948C51.9473 28.4948 51.9431 28.4924 51.9405 28.4924C51.2954 27.8063 50.3962 27.4527 49.4726 27.5234C47.9652 27.6365 46.7292 28.8956 46.599 30.4518C46.5213 31.3784 46.8317 32.2933 47.4495 32.9629L50.492 36.3912C50.5856 36.4973 50.6839 36.6058 50.7679 36.7237C50.8162 36.7873 50.859 36.8557 50.9027 36.9359C51.1081 37.2731 51.2152 37.662 51.2152 38.0629C51.2152 38.169 51.2085 38.2775 51.1921 38.3836C51.1921 38.3907 51.1904 38.3954 51.1904 38.4024L51.1879 38.4119C51.1858 38.4236 51.1833 38.4354 51.1808 38.4472C51.1787 38.4614 51.1766 38.4731 51.1745 38.4873L51.1719 38.5038C51.1673 38.5321 51.1606 38.558 51.1535 38.5863L51.1518 38.5981C51.1493 38.6099 51.1446 38.6217 51.1421 38.6335C51.14 38.6453 51.1354 38.6571 51.1333 38.6689L51.1308 38.6759C51.1287 38.6806 51.1287 38.6854 51.1262 38.6901C51.1194 38.7113 51.1123 38.7302 51.1056 38.7514C50.9258 39.2913 50.531 39.7323 50.0249 39.9633C49.9199 40.0175 49.8082 40.0576 49.694 40.0836C49.5209 40.1402 49.3382 40.1661 49.1513 40.159C48.9959 40.1661 48.8409 40.1472 48.686 40.1048C48.6587 40.0977 48.6335 40.0906 48.6108 40.0836C48.5856 40.0765 48.5583 40.0671 48.5331 40.06C48.5238 40.0576 48.5146 40.0552 48.5079 40.0506C48.4898 40.0458 48.4739 40.0388 48.4554 40.0317L48.4441 40.027C48.4373 40.0246 48.4306 40.0223 48.426 40.0199C48.4054 40.0129 48.3823 40.0034 48.3622 39.9964C48.3462 39.9892 48.3302 39.9846 48.3143 39.9775L48.2958 39.9704C48.2387 39.9468 48.182 39.9209 48.1269 39.8926C47.835 39.7158 47.5864 39.4611 47.4109 39.1616L47.3815 39.1098L47.3903 39.1711C47.5843 40.3665 47.6822 41.5902 47.6822 42.8067C47.6822 44.2875 47.5385 45.7684 47.2534 47.2066C47.2353 47.2937 47.2172 47.3905 47.1941 47.4989C47.192 47.5107 47.1895 47.5224 47.1853 47.5345L47.1807 47.5555H47.1211C45.8577 47.5555 42.9496 47.5555 42.8085 47.5555H42.8013C42.7535 47.5555 42.6623 47.5555 42.5485 47.5555C42.845 46.6739 43.6111 46.0419 44.5074 45.9406C44.5943 45.9309 44.6809 45.9263 44.7653 45.9263C45.1508 45.9263 45.536 46.0252 45.8737 46.214L45.9035 46.2304L45.8896 46.1998C45.712 45.773 45.5179 45.3438 45.315 44.9313C44.5028 43.2761 43.4948 41.7199 42.3179 40.3075L42.3158 40.3028H42.3112C42.1629 40.2981 42.008 40.2887 41.8528 40.2746V40.2651H41.8413C41.3806 40.218 40.9199 40.1236 40.4751 39.9798C39.7795 39.7558 39.1227 39.4187 38.5251 38.9754C37.9367 38.5392 37.419 38.0134 36.9879 37.4097C36.0916 36.1601 35.6172 34.6723 35.6172 33.1068C35.6172 32.8049 35.6377 32.4914 35.6787 32.173L35.6856 32.1329C35.697 32.0622 35.7084 31.9938 35.7198 31.9231L35.7221 31.9089H35.6993C35.6719 31.9089 35.6126 31.9089 35.5944 31.9089C32.1163 32.1447 28.8889 33.7268 26.501 36.3629C24.1062 39.0084 22.7879 42.4695 22.7879 46.1077C22.7879 46.261 22.7857 46.4285 22.7811 46.6077C22.7742 46.926 22.7674 47.256 22.7788 47.5555C20.156 47.5555 18.6666 47.5555 18.5663 47.5555H18.5595C18.5116 47.5555 18.418 47.5555 18.3063 47.5555C18.6028 46.6739 19.3691 46.0419 20.2654 45.9406C20.3521 45.9309 20.4387 45.9263 20.5231 45.9263C20.6235 45.9263 20.7444 45.9381 20.8813 45.9615C21.2439 46.0231 21.6658 46.1596 21.9076 46.294L21.9258 46.3037V46.2823C21.8369 44.476 21.2758 42.5617 20.302 40.7461C19.3646 38.9942 18.0622 37.3626 16.5387 36.0281C15.8545 35.3631 15.3162 34.5804 14.9376 33.6986C14.5453 32.7861 14.3469 31.8123 14.3469 30.8079C14.3469 29.537 14.5887 28.3981 15.063 27.4243C15.542 26.4412 16.2605 25.6277 17.1956 25.0052L17.2001 25.0146L47.6939 7.85198C48.1248 8.58053 48.3575 9.41759 48.3575 10.2947C48.3575 11.5444 47.8854 12.7209 47.0299 13.6051C46.8888 13.7513 46.7405 13.8856 46.5851 14.0083C46.4919 14.0814 46.3982 14.1521 46.3004 14.2181L23.9374 26.8325L23.9283 26.8373L23.9329 26.8467C24.0766 27.1179 24.3138 27.3159 24.5988 27.4031C24.8862 27.4903 25.1873 27.4573 25.4496 27.3088C25.4496 27.3088 46.2386 15.5975 46.3184 15.5574C46.7745 16.3001 47.0186 17.1607 47.0186 18.0614C47.0186 19.0729 46.615 20.0632 45.9879 20.8295C45.5658 21.3435 45.0551 21.6877 44.494 22.0084C43.4608 22.5955 42.4276 23.1802 41.3943 23.7674C40.2927 24.3922 39.1888 25.017 38.0872 25.6395C37.7725 25.8187 37.46 26.0097 37.1384 26.1771L37.1293 26.1818L37.1361 26.1912C37.4349 26.7382 38.1146 26.9387 38.646 26.6368C38.646 26.6368 45.2785 22.9539 45.5385 22.7794C46.7246 21.9778 47.6502 20.9215 47.9972 19.4572C48.0518 19.2285 48.0929 18.9927 48.1202 18.7546C48.1454 18.5282 48.1589 18.2948 48.1589 18.0614C48.1589 17.1466 47.956 16.2812 47.5956 15.5102C47.5091 15.3263 47.4134 15.1471 47.3105 14.9749C47.3012 14.9608 47.2945 14.9467 47.2853 14.9325C48.6288 13.8597 49.4932 12.1809 49.4932 10.29C49.4932 9.45294 49.3223 8.656 49.0165 7.93687C48.9208 7.71285 48.8111 7.49357 48.6906 7.28609C48.5192 6.99138 48.3256 6.71552 48.111 6.4585L27.1807 18.1227C25.7073 13.4778 22.4299 9.6793 18.1991 7.61854C18.1923 7.61619 17.9915 7.52423 17.8045 7.45114C17.8068 7.45114 17.8091 7.45349 17.8091 7.45349C16.7759 7.01496 15.6423 6.7721 14.4564 6.7721C13.5828 6.7721 12.7367 6.90414 11.9407 7.14935C10.3966 7.62327 8.71575 8.70789 7.81254 9.92217C7.81027 9.92451 7.80801 9.92925 7.8057 9.93159C7.80343 9.93632 7.80116 9.93867 7.79658 9.94336C7.52291 10.3135 7.4841 10.8252 7.70994 11.2308C7.52976 11.3345 7.31535 11.45 7.06902 11.5821C5.639 12.3508 3.47685 13.5155 3.08683 15.0481C2.99332 15.4159 2.99104 15.7719 3.08228 16.1091C3.09824 16.1657 3.08456 16.2247 3.05262 16.2671L0.555208 18.533C0.409237 18.7121 0.379588 18.9644 0.475379 19.1766C0.477664 19.1838 0.484501 19.2049 0.493624 19.2356C0.546082 19.4101 0.68065 19.8769 1.02276 20.3485C1.45382 20.945 2.03998 21.3176 2.76525 21.459C3.64334 21.6288 3.98545 22.0461 4.11089 22.2796C4.24091 22.5248 4.49404 22.6639 4.75406 22.6308C4.80198 22.6262 4.83159 22.6097 4.84986 22.5837C4.88405 22.5271 4.85213 22.4375 4.81563 22.3314C4.7746 22.2135 4.72899 22.0792 4.76091 21.9636L5.07334 20.879C5.08708 20.8319 5.119 20.7918 5.1623 20.7706C5.20795 20.7469 5.25814 20.7422 5.30598 20.7588C5.67096 20.8861 6.0427 21.044 6.05866 21.0794C6.06547 21.0959 6.06547 21.2091 5.93094 21.4378C5.05512 22.9233 4.61038 23.2039 4.53054 23.2463C4.3207 23.3547 4.17932 23.5787 4.16335 23.8287C4.14739 24.0786 4.2546 24.3238 4.44843 24.4629C5.30145 25.0878 6.9641 25.3447 7.81939 25.3613C8.23221 27.5894 9.06696 29.6761 10.3031 31.5576L10.3123 31.5718C11.4777 33.5406 11.4686 35.0967 11.4618 36.469C11.4618 36.5727 11.4618 36.6765 11.4618 36.7779C11.4618 38.0605 11.309 39.3362 11.0102 40.5693C10.7137 41.7883 10.2712 42.9721 9.69414 44.0823C9.43185 44.5518 9.11488 44.9878 8.75221 45.3794C8.25501 45.0561 7.68255 44.8839 7.09409 44.8839C6.95272 44.8839 6.80904 44.8961 6.66304 44.9149C6.19777 44.9807 5.76445 45.1507 5.37444 45.4192C4.85898 45.773 4.46212 46.2706 4.22494 46.8577C4.14511 47.0533 4.08352 47.2606 4.04475 47.4709C4.04247 47.4847 4.04019 47.4989 4.03791 47.5132C4.03563 47.5224 4.03563 47.5295 4.03335 47.5391C4.00142 47.7276 3.98545 47.9186 3.98545 48.1024C3.98545 48.1355 3.98773 48.1711 3.98773 48.2038V48.218C3.99229 48.355 4.00598 48.4915 4.0265 48.6213C4.02879 48.6356 4.03107 48.6473 4.03335 48.6615C4.03563 48.6707 4.03791 48.6804 4.03791 48.6896L4.04019 48.6992H11.9726L11.975 48.6967C12.374 48.329 12.7527 47.942 13.1039 47.5509L13.1176 47.5366C13.7403 46.8364 14.3081 46.0796 14.803 45.2826C14.8897 45.1436 14.9787 44.9974 15.063 44.8513C15.1953 44.6222 15.3254 44.3889 15.4485 44.1531C15.7017 43.6652 15.9366 43.158 16.1419 42.6442C16.1601 42.5994 16.1761 42.5545 16.192 42.5122C16.2034 42.4838 16.2125 42.4557 16.2239 42.4297C16.3471 42.1135 16.4475 41.8307 16.5319 41.5666L16.541 41.5384C16.5638 41.4676 16.5866 41.3945 16.6094 41.3238C16.6573 41.1705 16.7029 41.0172 16.7439 40.864L16.7462 40.8569L16.7417 40.8522C16.6619 40.765 16.5752 40.6731 16.4862 40.5787C16.2696 40.3523 16.0506 40.1354 15.8317 39.9303L15.818 39.9161L15.8134 39.935C15.7792 40.0836 15.7496 40.2014 15.7199 40.3123C15.656 40.5528 15.5968 40.765 15.5397 40.9583L15.5261 41.0007C15.5101 41.055 15.4941 41.1092 15.4759 41.1611C15.4736 41.1705 15.469 41.1799 15.4667 41.1894C15.4644 41.1964 15.4622 41.2059 15.4576 41.213C15.3459 41.5595 15.2204 41.9037 15.0859 42.2362C14.835 42.8586 14.5385 43.4717 14.2055 44.0589C14.0025 44.4195 13.7836 44.7734 13.5555 45.1105C13.0491 45.8581 12.4744 46.5675 11.8472 47.2158C11.7491 47.3176 11.6488 47.4164 11.5302 47.532H5.18968C5.20111 47.4943 5.21022 47.4638 5.21934 47.4353C5.22618 47.4118 5.2353 47.3905 5.24441 47.367C5.44513 46.8318 5.85795 46.405 6.37568 46.1973C6.60605 46.1056 6.8478 46.0582 7.08951 46.0582C7.35184 46.0582 7.60729 46.1102 7.849 46.2161C8.20486 46.3694 8.51046 46.6266 8.72713 46.9566L8.73398 46.9662L8.74309 46.9591C9.03504 46.7233 9.31555 46.4616 9.571 46.1831C10.1252 45.5846 10.5814 44.9053 10.9281 44.1699C10.9896 44.0375 11.0512 43.896 11.115 43.7381C12.0912 41.5454 12.5862 39.2065 12.5862 36.785C12.5862 35.9291 12.5223 35.0661 12.3946 34.2126C12.5063 34.3116 12.6204 34.3965 12.7253 34.4743C13.3844 35.1038 14.1006 35.6791 14.8532 36.186C15.5899 36.7873 16.1784 37.3202 16.7029 37.8625C17.6791 38.8716 18.507 39.9681 19.1615 41.121C19.8412 42.3162 20.3407 43.5827 20.644 44.8864C20.5939 44.8818 20.5506 44.8772 20.5186 44.8772C20.2723 44.8772 20.026 44.9053 19.7865 44.9597C19.0521 45.1293 18.3861 45.5561 17.9094 46.1621C17.4259 46.7773 17.1591 47.5555 17.1591 48.3499C17.1591 48.4538 17.1636 48.5577 17.1728 48.6687C17.1728 48.685 17.1728 48.7013 17.1773 48.7156L17.1796 48.7252H23.8896V48.713C23.8896 48.7013 23.8804 47.5722 23.8804 47.5484C23.885 47.3008 23.8941 47.0345 23.901 46.8012C23.9101 46.5135 23.9169 46.2635 23.9169 46.1148C23.9169 42.5901 25.2147 39.3078 27.5707 36.8722C29.466 34.9128 31.8585 33.6467 34.4859 33.2152C34.511 35.2641 35.2591 37.2211 36.5956 38.7325C37.9253 40.2345 39.7316 41.1823 41.684 41.3968C42.131 41.9531 42.5531 42.5357 42.9408 43.1275C43.3259 43.7171 43.6888 44.3349 44.0173 44.9664C43.2898 45.1365 42.6283 45.5632 42.1537 46.1667C41.6702 46.7824 41.4034 47.5601 41.4034 48.355C41.4034 48.4584 41.408 48.5623 41.4171 48.6733C41.4171 48.6896 41.4171 48.7063 41.4217 48.7202L41.4239 48.7298H48.0997L48.1022 48.7202C48.1429 48.5648 48.1795 48.409 48.216 48.2582C48.631 46.485 48.843 44.6532 48.843 42.8117C48.843 42.3024 48.8271 41.7859 48.7952 41.2789C48.93 41.2978 49.0669 41.3073 49.2034 41.3096C49.9653 41.3167 50.702 41.029 51.2816 40.5056C51.8607 39.9798 52.2303 39.263 52.3215 38.4826C52.4214 37.6173 52.1913 36.7661 51.6738 36.087L51.6646 36.0752C51.589 35.9762 50.1799 34.3635 50.1203 34.2951L48.3689 32.2909C47.9308 31.8147 47.7099 31.2983 47.7099 30.7583C47.7099 29.6124 48.6129 28.6787 49.7217 28.6787C50.2253 28.6787 50.7066 28.8721 51.0808 29.2257C51.0968 29.2376 51.1106 29.2493 51.122 29.2635L51.1421 29.287C51.1904 29.3366 51.2358 29.3884 51.2791 29.445L52.7297 31.0978C52.3374 31.6803 52.2119 32.3923 52.3803 33.0996C52.581 33.9414 53.2064 34.604 54.0162 34.8279C54.6726 35.0095 55.3413 34.9105 55.8999 34.5497C55.9478 34.5261 56.1964 34.3399 56.2876 34.2503C56.422 34.1206 56.5479 33.9721 56.6639 33.8094L56.6689 33.8023L54.1687 31.0224ZM8.10906 18.0378L8.10679 18.0472C7.84219 19.1083 7.52749 20.6904 7.52749 22.2206C7.52749 22.902 7.57079 23.6 7.6529 24.2955C7.46134 24.2648 7.21954 24.2365 6.96641 24.2082C6.43272 24.1493 5.88075 24.088 5.73022 23.9819C5.68692 23.9512 5.6595 23.9041 5.65496 23.8522C5.65038 23.8004 5.66407 23.7508 5.6983 23.7131C6.04497 23.3264 6.43045 22.7724 6.84553 22.0697C6.89568 21.9848 7.32673 21.2209 7.03936 20.5843C6.72693 19.8958 6.28219 19.8251 5.81687 19.7166C5.78495 19.7095 4.8544 19.5091 4.8544 19.5091L4.29336 20.7635C4.27056 20.8177 4.24775 20.8554 4.19072 20.8696C4.1337 20.8837 4.0744 20.8696 4.03107 20.8295C3.78475 20.6102 3.53386 20.4216 2.95455 20.3084C2.2977 20.1811 2.1677 19.9382 1.96927 19.5728C1.91453 19.4714 1.85067 19.3535 1.77085 19.2309C1.68418 19.0965 1.6933 18.9173 1.79365 18.7923L3.6251 17.3399L3.62738 17.3375C3.68895 17.2621 3.80072 17.2479 3.87598 17.3045C4.063 17.4484 4.26371 17.5356 4.47123 17.5639C4.94109 17.6275 5.26041 17.3635 5.31741 17.3093C5.31741 17.3093 5.53866 17.1655 5.64811 17.0051L5.65038 17.0028C5.75534 16.8495 5.79411 16.7127 5.76445 16.5948L5.75988 16.5806L5.74845 16.5878C5.58196 16.6726 5.40405 16.7174 5.23072 16.7174C4.93655 16.7174 4.65372 16.5972 4.41424 16.3661C4.21125 16.1728 4.09037 15.8733 4.07668 15.522C4.06984 15.3782 4.10177 15.2179 4.17019 15.0575C4.47808 14.1592 6.45779 13.1477 7.76697 12.478C7.938 12.3908 8.10217 12.306 8.24359 12.2328C8.66783 13.3057 8.66783 14.3124 8.66783 14.9161V15.0033C8.66783 15.5338 8.60168 16.1398 8.47169 16.7528C8.34166 17.1678 8.21851 17.6016 8.10906 18.0378ZM13.7881 33.8895C13.5258 33.6537 13.2772 33.4133 13.0491 33.1775C10.2188 30.2514 8.65872 26.3586 8.65872 22.2206C8.65872 20.8436 8.83885 19.4667 9.19237 18.1274C9.21979 18.0331 9.24487 17.9412 9.27221 17.8469C9.52996 16.9508 9.79683 16.0266 9.79683 15.001C9.79683 13.4424 9.41362 11.9499 8.68833 10.6837C9.08749 10.1956 9.5505 9.75239 10.0591 9.37513C10.4993 9.05684 10.9714 8.78566 11.4709 8.56642C12.4174 8.15143 13.4232 7.94156 14.4609 7.94156C15.4987 7.94156 16.4953 8.175 17.451 8.56642C18.3245 8.92479 19.2961 9.54726 19.8412 9.92925C20.6873 10.5211 21.4856 11.2001 22.2087 11.9499C22.3432 12.089 22.4755 12.2305 22.6055 12.3743C23.1734 13.0062 23.6979 13.6853 24.1633 14.3973C24.7403 15.2815 25.2375 16.227 25.6366 17.2055C25.835 17.6912 26.0107 18.184 26.1612 18.6839L16.6824 23.9654V23.9631L16.6687 23.9725L16.6595 23.9772C15.7176 24.5973 14.8624 25.5593 14.2511 26.6864C13.5692 27.9454 13.2111 29.3672 13.2111 30.7984C13.2156 31.8665 13.4072 32.9063 13.7881 33.8895ZM54.1758 33.6325C53.8726 33.5052 53.6327 33.2482 53.5185 32.9299C53.4072 32.6163 53.4118 32.2957 53.5281 31.9962L54.408 32.9983L55.0217 33.6773C54.7482 33.7669 54.4564 33.7504 54.1758 33.6325Z" stroke="#FCBC3D" stroke-width="0.4"/>
<path d="M79.1721 9.34821V13.1672H88.5776V18.7356H79.1721V27.8419H73.5433V3.77979H89.5033V9.34821H79.1721Z" fill="white"/>
<path d="M110.337 8.93491L110.307 27.8426H104.679V25.812C103.52 27.288 101.865 28.2877 99.5476 28.2877C94.9125 28.2877 91.3307 24.2344 91.3307 18.3849C91.3307 12.504 94.9721 8.48193 99.5098 8.48193C101.827 8.48193 103.55 9.51286 104.709 11.0592V8.92712H110.337V8.93491ZM104.709 18.3926C104.709 15.7764 103.054 14.0582 100.864 14.0582C98.6819 14.0582 97.0267 15.7764 97.0267 18.3926C97.0267 21.0402 98.7122 22.7271 100.864 22.7271C103.046 22.7193 104.709 21.0402 104.709 18.3926Z" fill="white"/>
<path d="M121.339 3.33479C121.339 5.2951 119.917 6.70081 117.93 6.70081C116.012 6.70081 114.522 5.2951 114.522 3.33479C114.522 1.41357 116.012 0 117.93 0C119.909 0 121.339 1.40578 121.339 3.33479ZM115.109 8.93446H120.737V27.8421H115.109V8.93446Z" fill="white"/>
<path d="M137.47 8.59033V14.6038C137.109 14.5726 136.876 14.5336 136.341 14.5336C133.693 14.5336 131.142 15.3614 131.142 19.6569V27.8338H125.514V8.93396H131.142V11.8548C132.271 9.5509 134.122 8.48877 136.44 8.48877C136.868 8.48877 137.2 8.52001 137.47 8.59033Z" fill="white"/>
<path d="M139.442 21.8602H145.138C145.371 22.8911 146.101 23.8908 148.712 23.8908C150.601 23.8908 151.195 23.3753 151.195 22.5865C151.195 21.829 150.631 21.6571 147.523 20.9699C142.324 19.7984 140.202 18.3536 140.202 15.0266C140.202 10.9342 143.347 8.52881 148.614 8.52881C153.746 8.52881 156.266 10.8327 156.823 14.4408H151.127C150.894 13.5505 150.164 12.9257 148.381 12.9257C146.726 12.9257 145.898 13.4412 145.898 14.2691C145.898 14.9251 146.432 14.9876 148.614 15.4718C154.047 16.7057 156.989 17.846 156.989 21.7587C156.989 26.1244 153.317 28.2878 148.644 28.2878C143.708 28.2878 140.104 25.8511 139.442 21.8602Z" fill="white"/>
<path d="M179.133 18.3916C179.133 24.2334 175.559 28.2945 170.916 28.2945C168.599 28.2945 166.944 27.2948 165.748 25.8188V34.9826H160.119V8.93396H165.748V11.066C166.906 9.51965 168.629 8.48877 170.946 8.48877C175.491 8.48877 179.133 12.5108 179.133 18.3916ZM173.437 18.3916C173.437 15.7753 171.782 14.0572 169.599 14.0572C167.41 14.0572 165.755 15.7753 165.755 18.3916C165.755 21.0392 167.41 22.7261 169.599 22.7261C171.744 22.7183 173.437 21.0392 173.437 18.3916Z" fill="white"/>
<path d="M188.344 3.33479C188.344 5.2951 186.921 6.70081 184.935 6.70081C183.016 6.70081 181.527 5.2951 181.527 3.33479C181.527 1.41357 183.016 0 184.935 0C186.913 0 188.344 1.40578 188.344 3.33479ZM182.113 8.93446H187.742V27.8421H182.113V8.93446Z" fill="white"/>
<path d="M208.54 16.0175V27.8416H202.911V17.3217C202.911 15.2599 202.317 14.0572 200.03 14.0572C197.809 14.0572 196.681 15.1896 196.681 17.8059V27.8416H191.053V8.93396H196.681V11.066C198.005 9.37906 199.699 8.48877 201.948 8.48877C206.057 8.48877 208.54 11.4096 208.54 16.0175Z" fill="white"/>
<path d="M78.2947 44.0002C78.7076 44.1149 79.0327 44.3243 79.2695 44.6279C79.5068 44.9253 79.6253 45.3035 79.6253 45.7625C79.6253 46.3769 79.3913 46.8497 78.9243 47.1806C78.464 47.5114 77.7899 47.6768 76.9028 47.6768H73.5105V40.5869H76.7C77.5123 40.5869 78.1389 40.7489 78.5791 41.0731C79.0259 41.3972 79.2494 41.8462 79.2494 42.42C79.2494 42.7915 79.1612 43.1123 78.9852 43.3824C78.8159 43.6526 78.5858 43.8582 78.2947 44.0002ZM74.5261 41.4073V43.676H76.6084C77.1301 43.676 77.5295 43.5814 77.8071 43.3925C78.0914 43.1965 78.2338 42.9129 78.2338 42.5415C78.2338 42.1704 78.0914 41.8902 77.8071 41.701C77.5295 41.5052 77.1301 41.4073 76.6084 41.4073H74.5261ZM76.8625 46.8564C77.4379 46.8564 77.8714 46.7618 78.1624 46.5729C78.4535 46.3836 78.5992 46.0866 78.5992 45.6812C78.5992 44.8914 78.0205 44.4964 76.8625 44.4964H74.5261V46.8564H76.8625Z" fill="white"/>
<path d="M82.6707 40.5869H83.6863V46.7957H87.536V47.6768H82.6707V40.5869Z" fill="white"/>
<path d="M93.2551 47.7576C92.5373 47.7576 91.8906 47.6023 91.3152 47.2919C90.7393 46.9745 90.2857 46.5389 89.9539 45.9853C89.6288 45.4316 89.4663 44.8139 89.4663 44.1316C89.4663 43.4498 89.6288 42.8321 89.9539 42.2784C90.2857 41.7246 90.7393 41.2925 91.3152 40.9819C91.8906 40.6645 92.5373 40.5059 93.2551 40.5059C93.9662 40.5059 94.6092 40.6645 95.185 40.9819C95.7604 41.2925 96.2107 41.7246 96.5357 42.2784C96.8608 42.8254 97.0234 43.4431 97.0234 44.1316C97.0234 44.8206 96.8608 45.4417 96.5357 45.9953C96.2107 46.5423 95.7604 46.9745 95.185 47.2919C94.6092 47.6023 93.9662 47.7576 93.2551 47.7576ZM93.2551 46.8564C93.7763 46.8564 94.2438 46.7383 94.6567 46.5017C95.0767 46.2655 95.4051 45.9413 95.642 45.5296C95.8856 45.1108 96.0078 44.6451 96.0078 44.1316C96.0078 43.6186 95.8856 43.1563 95.642 42.7442C95.4051 42.3258 95.0767 41.9983 94.6567 41.7618C94.2438 41.5254 93.7763 41.4073 93.2551 41.4073C92.7335 41.4073 92.2597 41.5254 91.833 41.7618C91.413 41.9983 91.0812 42.3258 90.8376 42.7442C90.6007 43.1563 90.4823 43.6186 90.4823 44.1316C90.4823 44.6451 90.6007 45.1108 90.8376 45.5296C91.0812 45.9413 91.413 46.2655 91.833 46.5017C92.2597 46.7383 92.7335 46.8564 93.2551 46.8564Z" fill="white"/>
<path d="M103.228 47.7576C102.517 47.7576 101.874 47.6023 101.298 47.2919C100.729 46.9745 100.282 46.5423 99.9571 45.9953C99.6324 45.4417 99.4699 44.8206 99.4699 44.1316C99.4699 43.4431 99.6324 42.8254 99.9571 42.2784C100.282 41.7246 100.732 41.2925 101.308 40.9819C101.884 40.6645 102.527 40.5059 103.238 40.5059C103.793 40.5059 104.301 40.6004 104.761 40.7895C105.222 40.9718 105.615 41.2452 105.94 41.6098L105.28 42.2479C104.745 41.6875 104.078 41.4073 103.279 41.4073C102.75 41.4073 102.273 41.5254 101.847 41.7618C101.42 41.9983 101.085 42.3258 100.841 42.7442C100.604 43.1563 100.485 43.6186 100.485 44.1316C100.485 44.6451 100.604 45.1108 100.841 45.5296C101.085 45.9413 101.42 46.2655 101.847 46.5017C102.273 46.7383 102.75 46.8564 103.279 46.8564C104.071 46.8564 104.738 46.5729 105.28 46.0054L105.94 46.6436C105.615 47.0084 105.219 47.2852 104.751 47.4741C104.291 47.663 103.783 47.7576 103.228 47.7576Z" fill="white"/>
<path d="M111.177 44.527L109.877 45.8433V47.6768H108.861V40.5869H109.877V44.5471L113.737 40.5869H114.895L111.858 43.7774L115.088 47.6768H113.9L111.177 44.527Z" fill="white"/>
<path d="M120.556 47.7576C119.845 47.7576 119.202 47.6023 118.626 47.2919C118.057 46.9745 117.611 46.5423 117.286 45.9953C116.961 45.4417 116.798 44.8206 116.798 44.1316C116.798 43.4431 116.961 42.8254 117.286 42.2784C117.611 41.7246 118.061 41.2925 118.637 40.9819C119.212 40.6645 119.855 40.5059 120.566 40.5059C121.122 40.5059 121.629 40.6004 122.09 40.7895C122.551 40.9718 122.943 41.2452 123.268 41.6098L122.608 42.2479C122.073 41.6875 121.406 41.4073 120.607 41.4073C120.079 41.4073 119.601 41.5254 119.175 41.7618C118.748 41.9983 118.413 42.3258 118.17 42.7442C117.932 43.1563 117.814 43.6186 117.814 44.1316C117.814 44.6451 117.932 45.1108 118.17 45.5296C118.413 45.9413 118.748 46.2655 119.175 46.5017C119.601 46.7383 120.079 46.8564 120.607 46.8564C121.399 46.8564 122.066 46.5729 122.608 46.0054L123.268 46.6436C122.943 47.0084 122.547 47.2852 122.08 47.4741C121.619 47.663 121.112 47.7576 120.556 47.7576Z" fill="white"/>
<path d="M132.305 40.5869V47.6768H131.289V44.5165H127.206V47.6768H126.19V40.5869H127.206V43.6354H131.289V40.5869H132.305Z" fill="white"/>
<path d="M140.436 45.9045H136.657L135.875 47.6768H134.829L138.049 40.5869H139.054L142.284 47.6768H141.218L140.436 45.9045ZM140.08 45.0941L138.547 41.62L137.013 45.0941H140.08Z" fill="white"/>
<path d="M144.818 40.5869H145.834V47.6768H144.818V40.5869Z" fill="white"/>
<path d="M155.55 40.5869V47.6768H154.717L150.451 42.3899V47.6768H149.435V40.5869H150.268L154.534 45.8739V40.5869H155.55Z" fill="white"/>
<path d="M166.53 47.7576C165.819 47.7576 165.176 47.6023 164.601 47.2919C164.032 46.9745 163.585 46.5423 163.26 45.9953C162.935 45.4417 162.772 44.8206 162.772 44.1316C162.772 43.4431 162.935 42.8254 163.26 42.2784C163.585 41.7246 164.035 41.2925 164.611 40.9819C165.186 40.6645 165.829 40.5059 166.541 40.5059C167.096 40.5059 167.604 40.6004 168.064 40.7895C168.525 40.9718 168.917 41.2452 169.242 41.6098L168.582 42.2479C168.047 41.6875 167.38 41.4073 166.581 41.4073C166.053 41.4073 165.576 41.5254 165.149 41.7618C164.722 41.9983 164.387 42.3258 164.144 42.7442C163.907 43.1563 163.788 43.6186 163.788 44.1316C163.788 44.6451 163.907 45.1108 164.144 45.5296C164.387 45.9413 164.722 46.2655 165.149 46.5017C165.576 46.7383 166.053 46.8564 166.581 46.8564C167.373 46.8564 168.04 46.5729 168.582 46.0054L169.242 46.6436C168.917 47.0084 168.521 47.2852 168.054 47.4741C167.593 47.663 167.086 47.7576 166.53 47.7576Z" fill="white"/>
<path d="M176.526 45.9045H172.747L171.965 47.6768H170.919L174.139 40.5869H175.144L178.374 47.6768H177.308L176.526 45.9045ZM176.17 45.0941L174.636 41.62L173.103 45.0941H176.17Z" fill="white"/>
<path d="M182.98 47.7576C182.445 47.7576 181.927 47.6768 181.426 47.5147C180.931 47.346 180.542 47.1299 180.258 46.8664L180.634 46.0766C180.905 46.3195 181.25 46.5188 181.67 46.6738C182.096 46.8225 182.533 46.897 182.98 46.897C183.569 46.897 184.009 46.799 184.3 46.603C184.591 46.4007 184.737 46.1339 184.737 45.8031C184.737 45.5598 184.656 45.3642 184.493 45.2155C184.338 45.0601 184.141 44.942 183.904 44.8612C183.674 44.78 183.346 44.6887 182.919 44.5877C182.384 44.4592 181.951 44.331 181.619 44.2028C181.294 44.0743 181.013 43.8787 180.776 43.6153C180.545 43.3451 180.43 42.9837 180.43 42.5314C180.43 42.1532 180.529 41.8124 180.725 41.5086C180.928 41.2047 181.233 40.9616 181.639 40.7793C182.045 40.597 182.55 40.5059 183.152 40.5059C183.572 40.5059 183.985 40.5599 184.392 40.6679C184.798 40.7759 185.147 40.9312 185.438 41.1338L185.103 41.9442C184.805 41.755 184.487 41.6132 184.148 41.5187C183.809 41.4174 183.477 41.3668 183.152 41.3668C182.577 41.3668 182.144 41.4714 181.852 41.6807C181.568 41.8902 181.426 42.1603 181.426 42.4912C181.426 42.7341 181.507 42.9335 181.67 43.0884C181.832 43.2371 182.032 43.3552 182.269 43.4431C182.513 43.524 182.841 43.6119 183.254 43.7066C183.789 43.8347 184.219 43.9629 184.544 44.0914C184.869 44.2196 185.147 44.4152 185.377 44.6786C185.614 44.942 185.732 45.2963 185.732 45.7424C185.732 46.1134 185.631 46.4548 185.428 46.7651C185.225 47.0691 184.916 47.312 184.503 47.4942C184.09 47.6701 183.582 47.7576 182.98 47.7576Z" fill="white"/>
<path d="M188.689 40.5869H189.705V47.6768H188.689V40.5869Z" fill="white"/>
<path d="M199.421 40.5869V47.6768H198.588L194.322 42.3899V47.6768H193.306V40.5869H194.139L198.405 45.8739V40.5869H199.421Z" fill="white"/>
<path d="M206.232 47.7576C205.514 47.7576 204.867 47.6023 204.292 47.2919C203.716 46.9745 203.262 46.5389 202.931 45.9853C202.605 45.4316 202.443 44.8139 202.443 44.1316C202.443 43.4498 202.605 42.8321 202.931 42.2784C203.262 41.7246 203.716 41.2925 204.292 40.9819C204.867 40.6645 205.514 40.5059 206.232 40.5059C206.943 40.5059 207.586 40.6645 208.162 40.9819C208.737 41.2925 209.187 41.7246 209.512 42.2784C209.837 42.8254 210 43.4431 210 44.1316C210 44.8206 209.837 45.4417 209.512 45.9953C209.187 46.5423 208.737 46.9745 208.162 47.2919C207.586 47.6023 206.943 47.7576 206.232 47.7576ZM206.232 46.8564C206.753 46.8564 207.22 46.7383 207.633 46.5017C208.053 46.2655 208.382 45.9413 208.619 45.5296C208.862 45.1108 208.984 44.6451 208.984 44.1316C208.984 43.6186 208.862 43.1563 208.619 42.7442C208.382 42.3258 208.053 41.9983 207.633 41.7618C207.22 41.5254 206.753 41.4073 206.232 41.4073C205.71 41.4073 205.236 41.5254 204.81 41.7618C204.39 41.9983 204.058 42.3258 203.814 42.7442C203.577 43.1563 203.459 43.6186 203.459 44.1316C203.459 44.6451 203.577 45.1108 203.814 45.5296C204.058 45.9413 204.39 46.2655 204.81 46.5017C205.236 46.7383 205.71 46.8564 206.232 46.8564Z" fill="white"/>
</svg>
